<svg width="180" height="180" viewBox="0 0 180 180" fill="none" xmlns="http://www.w3.org/2000/svg">
<rect width="180" height="180" rx="30" fill="white"/>
<path fill-rule="evenodd" clip-rule="evenodd" d="M103.249 116.112C108.244 108.383 110.909 99.2958 110.909 90H92.7273C92.7273 95.5776 91.1275 101.029 88.1303 105.667C85.1349 110.305 80.8754 113.919 75.8913 116.053C70.9073 118.188 65.4244 118.746 60.1332 117.658C54.8438 116.57 49.9841 113.884 46.1701 109.941C42.3562 105.996 39.7586 100.972 38.7057 95.5014C37.6527 90.0312 38.1943 84.3614 40.2575 79.2084C42.3225 74.0554 45.8186 69.6514 50.3019 66.5528C54.787 63.4538 60.0604 61.8001 65.4546 61.8001V43.0001C56.4649 43.0001 47.6758 45.7567 40.2007 50.9212C32.7273 56.0852 26.8999 63.4258 23.4606 72.0138C20.0196 80.6019 19.1194 90.0523 20.8736 99.1691C22.6279 108.286 26.9567 116.661 33.3133 123.234C39.6698 129.807 47.7699 134.283 56.5874 136.097C65.4049 137.911 74.5437 136.98 82.8498 133.422C91.1541 129.865 98.2546 123.841 103.249 116.112ZM76.7507 63.8884C71.7561 71.6173 69.0909 80.7042 69.0909 90H87.2727C87.2727 84.4224 88.8725 78.9706 91.8697 74.3331C94.8651 69.6955 99.1246 66.081 104.109 63.9467C109.093 61.8124 114.576 61.2539 119.867 62.3421C125.156 63.4299 130.016 66.1159 133.83 70.0595C137.644 74.0035 140.241 79.028 141.294 84.4986C142.347 89.9688 141.806 95.6386 139.742 100.792C137.678 105.945 134.181 110.349 129.698 113.447C125.213 116.546 119.94 118.2 114.545 118.2V137C123.535 137 132.324 134.243 139.799 129.079C147.273 123.915 153.1 116.574 156.539 107.986C159.98 99.3981 160.881 89.9477 159.126 80.8309C157.372 71.7136 153.043 63.339 146.687 56.7659C140.33 50.1928 132.23 45.7168 123.413 43.9034C114.595 42.0895 105.456 43.0203 97.1502 46.5779C88.8459 50.135 81.7454 56.1591 76.7507 63.8884Z" fill="url(#paint0_radial_551_390)"/>
<defs>
<radialGradient id="paint0_radial_551_390" cx="0" cy="0" r="1" gradientUnits="userSpaceOnUse" gradientTransform="translate(90 90) rotate(90) scale(47 70)">
<stop stop-color="white"/>
<stop offset="1" stop-color="#5200FF"/>
</radialGradient>
</defs>
</svg>