<svg xmlns="http://www.w3.org/2000/svg" viewBox="-8 -8 58 58" width="100" height="100">
  <!-- Circular black background with padding -->
  <circle cx="21" cy="21" r="29" fill="#000000"/>
  
  <!-- Karbon K icon paths -->
  <g fill="#ffffff">
    <path d="M7.858 4.516c-.868 0-1.571.708-1.571 1.58v29.807c0 .873.703 1.58 1.571 1.58.869 0 1.572-.707 1.572-1.58V6.097c0-.873-.703-1.581-1.572-1.581z"/>
    <path d="M1.572 15.355c-.868 0-1.572.707-1.572 1.58v8.13c0 .872.704 1.58 1.572 1.58.868 0 1.571-.708 1.571-1.58v-8.13c0-.873-.703-1.58-1.571-1.58z"/>
    <path d="M14.145.903c-.868 0-1.571.708-1.571 1.58v37.033c0 .873.703 1.58 1.571 1.58s1.572-.707 1.572-1.58V2.484c0-.873-.704-1.581-1.572-1.581z"/>
    <path d="M39.806 27.257l-6.23-6.266 6.193-6.23a1.588 1.588 0 0 0 0-2.235 1.566 1.566 0 0 0-2.223 0L22.004 28.157v-4.605l14.41-14.437a1.587 1.587 0 0 0 .004-2.236 1.565 1.565 0 0 0-2.223-.004L22.004 19.09v-4.343l9.539-9.594a1.588 1.588 0 0 0 0-2.235 1.566 1.566 0 0 0-2.223 0l-7.316 7.358V1.58C22.004.707 21.3 0 20.432 0c-.868 0-1.572.707-1.572 1.58v38.84c0 .872.704 1.58 1.572 1.58.868 0 1.572-.708 1.572-1.58v-7.628l6.617 6.655a1.564 1.564 0 0 0 2.223 0 1.588 1.588 0 0 0 0-2.235l-6.698-6.737 2.491-2.507 7.316 7.358a1.564 1.564 0 0 0 2.224 0 1.588 1.588 0 0 0 0-2.235l-7.316-7.358 2.491-2.507 6.232 6.267a1.563 1.563 0 0 0 2.222 0 1.587 1.587 0 0 0 0-2.236z"/>
  </g>
</svg>
