<svg width="23" height="16" viewBox="0 0 23 16" fill="none" xmlns="http://www.w3.org/2000/svg">
<path fill-rule="evenodd" clip-rule="evenodd" d="M13.2421 12.0906C14.0365 10.8798 14.4605 9.45621 14.4605 7.9999H11.5684C11.5684 8.8737 11.3139 9.7278 10.8372 10.4543C10.3607 11.1809 9.68315 11.7471 8.89037 12.0815C8.09758 12.4159 7.22544 12.5034 6.38379 12.3329C5.54243 12.1625 4.76942 11.7417 4.16276 11.1238C3.5561 10.506 3.1429 9.71881 2.97542 8.86176C2.80794 8.00479 2.89408 7.11653 3.22226 6.30925C3.55073 5.50196 4.10684 4.81202 4.81997 4.32658C5.53339 3.84108 6.37221 3.582 7.23024 3.582V0.636732C5.80029 0.636732 4.40226 1.0686 3.21323 1.87768C2.02447 2.6867 1.09754 3.83669 0.550468 5.18212C0.00311753 6.52755 -0.140075 8.00809 0.138967 9.43636C0.418008 10.8647 1.10657 12.1767 2.11768 13.2065C3.12878 14.2362 4.41723 14.9375 5.81978 15.2215C7.22233 15.5057 8.676 15.3599 9.99721 14.8026C11.3181 14.2453 12.4476 13.3015 13.2421 12.0906ZM9.02706 3.90917C8.23258 5.11999 7.80866 6.54359 7.80866 7.9999H10.7007C10.7007 7.1261 10.9552 6.272 11.432 5.54546C11.9084 4.81892 12.586 4.25266 13.3788 3.9183C14.1715 3.58394 15.0437 3.49643 15.8853 3.66692C16.7267 3.83734 17.4997 4.25813 18.1064 4.87595C18.713 5.49383 19.1262 6.28099 19.2937 7.13803C19.4612 7.99501 19.375 8.88326 19.0469 9.69055C18.7184 10.4978 18.1623 11.1878 17.4491 11.6732C16.7357 12.1587 15.8969 12.4178 15.0389 12.4178V15.3631C16.4688 15.3631 17.8669 14.9312 19.0559 14.1221C20.2446 13.3131 21.1716 12.1631 21.7187 10.8177C22.266 9.47224 22.4092 7.9917 22.1302 6.56343C21.8511 5.13509 21.1625 3.8231 20.1514 2.79333C19.1403 1.76357 17.8519 1.06234 16.4493 0.778243C15.0468 0.494071 13.5931 0.639896 12.2719 1.19724C10.951 1.75451 9.82154 2.69827 9.02706 3.90917Z" fill="url(#paint0_radial_597_866)"/>
<defs>
<radialGradient id="paint0_radial_597_866" cx="0" cy="0" r="1" gradientUnits="userSpaceOnUse" gradientTransform="translate(11.1346 7.9999) rotate(90) scale(7.36318 11.1346)">
<stop stop-color="white"/>
<stop offset="1" stop-color="#5200FF"/>
</radialGradient>
</defs>
</svg>
